<svg xmlns="http://www.w3.org/2000/svg" width="1600" height="900" viewBox="0 0 1600 900"><defs><linearGradient id="b" x2="1" y2="1"><stop stop-color="#101b29"/><stop offset="1" stop-color="#1b3545"/></linearGradient><linearGradient id="screen" x2="0" y2="1"><stop stop-color="#123046"/><stop offset="1" stop-color="#06131d"/></linearGradient><filter id="g"><feGaussianBlur stdDeviation="10"/></filter></defs><rect width="1600" height="900" fill="url(#b)"/><path d="M0 710Q800 630 1600 705V900H0Z" fill="#08131e"/><rect x="185" y="83" width="1230" height="738" rx="88" fill="#263a4a" stroke="#9aacb8" stroke-width="24"/><rect x="240" y="140" width="1120" height="590" rx="34" fill="url(#screen)" stroke="#4c899e" stroke-width="16"/><g stroke="#5c9bb1" opacity=".35" stroke-width="3"><path d="M300 240H1300M300 340H1300M300 440H1300M300 540H1300M300 640H1300"/><path d="M450 195V670M600 195V670M750 195V670M900 195V670M1050 195V670M1200 195V670"/></g><line x1="290" y1="435" x2="1310" y2="435" stroke="#b5d7e2" stroke-width="7" opacity=".6"/><path d="M290 555Q360 548 414 584T522 616T640 626T762 613T890 626T1015 611T1120 632T1310 608" fill="none" stroke="#ffbd65" stroke-width="20" filter="url(#g)" opacity=".5"/><path d="M290 555Q360 548 414 584T522 616T640 626T762 613T890 626T1015 611T1120 632T1310 608" fill="none" stroke="#ffbd65" stroke-width="9"/><path d="M290 390Q345 405 410 384T530 380T660 386T785 373T920 384T1040 374T1160 380T1310 385" fill="none" stroke="#5fd5ce" stroke-width="10"/><g fill="#cfe6ed"><circle cx="460" cy="778" r="13"/><circle cx="540" cy="778" r="13"/><circle cx="620" cy="778" r="13"/><circle cx="700" cy="778" r="13"/></g></svg>